<?xml version="1.0" encoding="UTF-8"?><svg xmlns="http://www.w3.org/2000/svg" xmlns:xlink="http://www.w3.org/1999/xlink" viewBox="0 0 1000 500"><defs><style>.f,.g,.h{fill:#fff;}.i{fill:url(#d);mix-blend-mode:hard-light;}.j{isolation:isolate;}.k{fill:url(#b);}.l,.g{opacity:.78;}.h{opacity:.65;}</style><linearGradient id="b" x1="498.42" y1="-36.33" x2="501.32" y2="488.31" gradientTransform="matrix(1, 0, 0, 1, 0, 0)" gradientUnits="userSpaceOnUse"><stop offset="0" stop-color="#3dace1"/><stop offset="1" stop-color="#c8def5"/></linearGradient><radialGradient id="d" cx="944" cy="36" fx="944" fy="36" r="29" gradientTransform="matrix(1, 0, 0, 1, 0, 0)" gradientUnits="userSpaceOnUse"><stop offset=".34" stop-color="#fff"/><stop offset=".88" stop-color="#ffea00"/></radialGradient></defs><g class="j"><g id="a"><rect class="k" width="1000" height="500"/></g><g id="c"><circle class="i" cx="944" cy="36" r="29"/></g><g id="e"><g><path class="g" d="M43.11,43.25c-17.66-3.06-35.18,4.15-38.68,14.71-3.34,10.05,6.98,20.27,20.7,22.96,9.72,1.9,18.36-.52,21.25-1.43,.35,1.19,1.32,3.68,4.36,6.1,3,2.39,6.46,3.49,8.17,3.95,2.03,.67,9.39,2.9,18.52,1.43,6.98-1.12,11.34-3.82,13.08-5.02,6.2,4.3,15.39,6.1,23.97,4.66,12.07-2.02,16.5-9.36,16.89-10.04,10.62,4.33,24.04,3.85,33.23-1.08,7.74-4.14,11.44-10.88,9.81-17.58-.25-1.17-2.02-8.59-12.53-13.27-10-4.45-20.49-3.13-22.34-2.87,.12-1.16,.77-9.57-9.26-15.78-1.45-.9-11.42-6.87-25.06-5.02-11.88,1.61-17.63,7.94-18.52,8.97-1.83-.71-11.44-4.26-23.43-2.15-13.86,2.44-19.46,10.43-20.16,11.48Z"/><path class="f" d="M240.68,78.32c21.6-2.73,43.04,3.71,47.33,13.16,4.09,8.99-8.53,18.14-25.33,20.54-11.89,1.7-22.46-.47-26-1.28-.43,1.07-1.62,3.29-5.33,5.46-3.67,2.14-7.91,3.12-10,3.53-2.48,.6-11.49,2.6-22.67,1.28-8.54-1-13.87-3.41-16-4.49-7.59,3.85-18.83,5.46-29.33,4.17-14.76-1.81-20.19-8.37-20.67-8.99-12.99,3.87-29.42,3.44-40.67-.96-9.47-3.71-14-9.73-12-15.73,.3-1.05,2.47-7.69,15.33-11.88,12.23-3.98,25.07-2.8,27.33-2.57-.15-1.03-.94-8.56,11.33-14.12,1.78-.81,13.98-6.15,30.67-4.49,14.54,1.44,21.57,7.1,22.67,8.02,2.23-.63,14-3.81,28.67-1.93,16.96,2.18,23.81,9.33,24.67,10.27Z"/><path class="h" d="M225.13,50.3c-11.89-2.35-23.68,3.2-26.04,11.34-2.25,7.75,4.7,15.63,13.94,17.69,6.54,1.46,12.36-.4,14.31-1.11,.23,.92,.89,2.84,2.93,4.7,2.02,1.84,4.35,2.69,5.5,3.04,1.37,.52,6.32,2.24,12.47,1.11,4.7-.86,7.63-2.94,8.8-3.87,4.17,3.32,10.36,4.7,16.14,3.59,8.12-1.56,11.11-7.21,11.37-7.74,7.15,3.34,16.19,2.97,22.38-.83,5.21-3.19,7.7-8.39,6.6-13.55-.17-.9-1.36-6.62-8.44-10.23-6.73-3.43-13.79-2.41-15.04-2.21,.08-.89,.52-7.37-6.24-12.17-.98-.7-7.69-5.29-16.87-3.87-8,1.24-11.87,6.12-12.47,6.91-1.23-.54-7.7-3.28-15.77-1.66-9.33,1.88-13.1,8.04-13.57,8.85Z"/></g><path class="g" d="M579.98,43.39c-16.16-1.88-32.19,2.55-35.4,9.03-3.06,6.17,6.38,12.45,18.95,14.1,8.89,1.17,16.8-.32,19.44-.88,.32,.73,1.21,2.26,3.99,3.75,2.74,1.47,5.91,2.14,7.48,2.42,1.86,.41,8.59,1.78,16.95,.88,6.39-.69,10.38-2.34,11.97-3.08,5.67,2.64,14.08,3.75,21.94,2.86,11.04-1.24,15.1-5.75,15.46-6.17,9.72,2.66,22,2.36,30.41-.66,7.08-2.55,10.47-6.68,8.97-10.8-.23-.72-1.85-5.28-11.47-8.15-9.15-2.73-18.75-1.92-20.44-1.76,.11-.71,.71-5.88-8.48-9.69-1.33-.55-10.45-4.22-22.94-3.08-10.87,.99-16.13,4.88-16.95,5.51-1.67-.43-10.47-2.62-21.44-1.32-12.69,1.5-17.81,6.41-18.45,7.05Z"/><path class="f" d="M945.38,36.51c21.6-3.2,43.04,4.35,47.33,15.41,4.09,10.53-8.53,21.24-25.33,24.05-11.89,1.99-22.46-.55-26-1.5-.43,1.25-1.62,3.85-5.33,6.39-3.67,2.5-7.91,3.66-10,4.13-2.48,.7-11.49,3.04-22.67,1.5-8.54-1.18-13.87-4-16-5.26-7.59,4.51-18.83,6.39-29.33,4.89-14.76-2.12-20.19-9.8-20.67-10.52-12.99,4.54-29.42,4.03-40.67-1.13-9.47-4.34-14-11.4-12-18.41,.3-1.23,2.47-9,15.33-13.9,12.23-4.66,25.07-3.27,27.33-3.01-.15-1.21-.94-10.02,11.33-16.53,1.78-.94,13.98-7.2,30.67-5.26,14.54,1.69,21.57,8.32,22.67,9.39,2.23-.74,14-4.46,28.67-2.25,16.96,2.55,23.81,10.93,24.67,12.02Z"/><path class="h" d="M892.83,121.64c-11.89-2.35-23.68,3.2-26.04,11.34-2.25,7.75,4.7,15.63,13.94,17.69,6.54,1.46,12.36-.4,14.31-1.11,.23,.92,.89,2.84,2.93,4.7,2.02,1.84,4.35,2.69,5.5,3.04,1.37,.52,6.32,2.24,12.47,1.11,4.7-.86,7.63-2.94,8.8-3.87,4.17,3.32,10.36,4.7,16.14,3.59,8.12-1.56,11.11-7.21,11.37-7.74,7.15,3.34,16.19,2.97,22.38-.83,5.21-3.19,7.7-8.39,6.6-13.55-.17-.9-1.36-6.62-8.44-10.23-6.73-3.43-13.79-2.41-15.04-2.21,.08-.89,.52-7.37-6.24-12.17-.98-.7-7.69-5.29-16.87-3.87-8,1.24-11.87,6.12-12.47,6.91-1.23-.54-7.7-3.28-15.77-1.66-9.33,1.88-13.1,8.04-13.57,8.85Z"/><path class="f" d="M471.74,36.58c10.29-1.9,20.5,2.58,22.54,9.13,1.95,6.24-4.07,12.59-12.07,14.25-5.66,1.18-10.7-.32-12.38-.89-.2,.74-.77,2.28-2.54,3.79-1.75,1.48-3.77,2.17-4.76,2.45-1.18,.42-5.47,1.8-10.8,.89-4.07-.7-6.61-2.37-7.62-3.12-3.61,2.67-8.97,3.79-13.97,2.89-7.03-1.26-9.61-5.81-9.84-6.24-6.19,2.69-14.01,2.39-19.37-.67-4.51-2.57-6.67-6.75-5.72-10.91,.15-.73,1.18-5.33,7.3-8.24,5.83-2.76,11.94-1.94,13.02-1.78-.07-.72-.45-5.94,5.4-9.8,.85-.56,6.66-4.26,14.61-3.12,6.93,1,10.27,4.93,10.8,5.57,1.06-.44,6.67-2.64,13.65-1.34,8.08,1.51,11.34,6.48,11.75,7.13Z"/><path class="f" d="M764.76,102.07c13.13-2.53,26.16,3.44,28.77,12.18,2.48,8.33-5.19,16.79-15.4,19.02-7.23,1.57-13.65-.43-15.8-1.19-.26,.99-.98,3.05-3.24,5.05-2.23,1.98-4.81,2.89-6.08,3.27-1.51,.56-6.98,2.4-13.78,1.19-5.19-.93-8.43-3.16-9.73-4.16-4.61,3.57-11.45,5.05-17.83,3.86-8.97-1.68-12.27-7.75-12.56-8.32-7.9,3.59-17.88,3.19-24.72-.89-5.75-3.43-8.51-9.01-7.29-14.56,.19-.97,1.5-7.12,9.32-10.99,7.43-3.69,15.24-2.59,16.61-2.38-.09-.96-.57-7.92,6.89-13.07,1.08-.75,8.5-5.69,18.64-4.16,8.84,1.33,13.11,6.58,13.78,7.43,1.36-.58,8.51-3.53,17.42-1.78,10.31,2.02,14.47,8.64,14.99,9.51Z"/><g class="l"><path class="f" d="M345,109.73c1.44-1.07,2.95-2.28,4.48-3.65,1.47-1.31,2.76-2.59,3.9-3.8,2.34,.05,4.68,.1,7.01,.15,.46-.57,.93-1.23,1.36-1.98,.65-1.11,1.08-2.15,1.36-3.04,1.59-.18,3.71-.55,6.04-1.37,1.78-.62,3.2-1.34,4.29-1.98,.13-.03,.52-.13,.97,0,.3,.08,.49,.22,.58,.3-.31,.46-.81,1.12-1.56,1.83-.27,.25-1.06,.98-3.51,2.43-.83,.49-1.94,1.13-3.31,1.83-.18,.2-.42,.51-.58,.91-.15,.36-.19,.68-.19,.91l2.73,.46c.25,.01,.48,.13,.58,.3,.13,.22,.02,.43,0,.46-1.04,.68-2.27,1.41-3.7,2.13-1.53,.76-2.99,1.36-4.29,1.83-.1,0-.35-.01-.58-.15-.37-.22-.39-.56-.39-.61,.13-.56,.26-1.12,.39-1.67-.26,.15-.65,.33-1.17,.46-.33,.08-.63,.12-.88,.13-.38,.03-.81,.08-1.26,.17-1.1,.23-1.95,.6-2.53,.91-.77,.61-1.8,1.31-3.12,1.98-1.44,.73-2.8,1.21-3.9,1.52-.3,.03-.7,.05-1.17,0-.72-.08-1.25-.3-1.56-.46Z"/></g><g class="l"><path class="f" d="M371.61,120.75c1.44-1.07,2.95-2.28,4.48-3.65,1.47-1.31,2.76-2.59,3.9-3.8,2.34,.05,4.68,.1,7.01,.15,.46-.57,.93-1.23,1.36-1.98,.65-1.11,1.08-2.15,1.36-3.04,1.59-.18,3.71-.55,6.04-1.37,1.78-.62,3.2-1.34,4.29-1.98,.13-.03,.52-.13,.97,0,.3,.08,.49,.22,.58,.3-.31,.46-.81,1.12-1.56,1.83-.27,.25-1.06,.98-3.51,2.43-.83,.49-1.94,1.13-3.31,1.83-.18,.2-.42,.51-.58,.91-.15,.36-.19,.68-.19,.91l2.73,.46c.25,.01,.48,.13,.58,.3,.13,.22,.02,.43,0,.46-1.04,.68-2.27,1.41-3.7,2.13-1.53,.76-2.99,1.36-4.29,1.83-.1,0-.35-.01-.58-.15-.37-.22-.39-.56-.39-.61,.13-.56,.26-1.12,.39-1.67-.26,.15-.65,.33-1.17,.46-.33,.08-.63,.12-.88,.13-.38,.03-.81,.08-1.26,.17-1.1,.23-1.95,.6-2.53,.91-.77,.61-1.8,1.31-3.12,1.98-1.44,.73-2.8,1.21-3.9,1.52-.3,.03-.7,.05-1.17,0-.72-.08-1.25-.3-1.56-.46Z"/></g><g class="l"><path class="f" d="M386.61,94.75c1.44-1.07,2.95-2.28,4.48-3.65,1.47-1.31,2.76-2.59,3.9-3.8,2.34,.05,4.68,.1,7.01,.15,.46-.57,.93-1.23,1.36-1.98,.65-1.11,1.08-2.15,1.36-3.04,1.59-.18,3.71-.55,6.04-1.37,1.78-.62,3.2-1.34,4.29-1.98,.13-.03,.52-.13,.97,0,.3,.08,.49,.22,.58,.3-.31,.46-.81,1.12-1.56,1.83-.27,.25-1.06,.98-3.51,2.43-.83,.49-1.94,1.13-3.31,1.83-.18,.2-.42,.51-.58,.91-.15,.36-.19,.68-.19,.91l2.73,.46c.25,.01,.48,.13,.58,.3,.13,.22,.02,.43,0,.46-1.04,.68-2.27,1.41-3.7,2.13-1.53,.76-2.99,1.36-4.29,1.83-.1,0-.35-.01-.58-.15-.37-.22-.39-.56-.39-.61,.13-.56,.26-1.12,.39-1.67-.26,.15-.65,.33-1.17,.46-.33,.08-.63,.12-.88,.13-.38,.03-.81,.08-1.26,.17-1.1,.23-1.95,.6-2.53,.91-.77,.61-1.8,1.31-3.12,1.98-1.44,.73-2.8,1.21-3.9,1.52-.3,.03-.7,.05-1.17,0-.72-.08-1.25-.3-1.56-.46Z"/></g><path class="f" d="M863,119.43c-1.11-1.07-2.28-2.28-3.47-3.65-1.14-1.31-2.14-2.59-3.01-3.8l-5.43,.15c-.35-.57-.72-1.23-1.06-1.98-.51-1.11-.84-2.15-1.06-3.04-1.23-.18-2.87-.55-4.67-1.37-1.37-.62-2.48-1.34-3.32-1.98-.1-.03-.4-.13-.75,0-.23,.08-.38,.22-.45,.3,.24,.46,.63,1.12,1.21,1.83,.21,.25,.82,.98,2.71,2.43,.64,.49,1.5,1.13,2.56,1.83,.14,.2,.32,.51,.45,.91,.11,.36,.15,.68,.15,.91l-2.11,.46c-.2,.01-.37,.13-.45,.3-.1,.22-.01,.43,0,.46,.8,.68,1.76,1.41,2.86,2.13,1.18,.76,2.31,1.36,3.32,1.83,.07,0,.27-.01,.45-.15,.28-.22,.3-.56,.3-.61l-.3-1.67c.2,.15,.5,.33,.9,.46,.26,.08,.49,.12,.68,.13,.29,.03,.62,.08,.98,.17,.85,.23,1.51,.6,1.96,.91,.6,.61,1.39,1.31,2.41,1.98,1.12,.73,2.17,1.21,3.01,1.52,.23,.03,.54,.05,.9,0,.56-.08,.97-.3,1.21-.46Z"/><path class="f" d="M889,115.14c-1.11-1.07-2.27-2.28-3.45-3.65-1.13-1.31-2.12-2.59-3-3.8l-5.39,.15c-.35-.57-.71-1.23-1.05-1.98-.5-1.11-.83-2.15-1.05-3.04-1.22-.18-2.85-.55-4.64-1.37-1.37-.62-2.46-1.34-3.3-1.98-.1-.03-.4-.13-.75,0-.23,.08-.38,.22-.45,.3,.24,.46,.63,1.12,1.2,1.83,.21,.25,.81,.98,2.7,2.43,.64,.49,1.49,1.13,2.55,1.83,.14,.2,.32,.51,.45,.91,.11,.36,.14,.68,.15,.91l-2.1,.46c-.2,.01-.37,.13-.45,.3-.1,.22-.01,.43,0,.46,.8,.68,1.74,1.41,2.85,2.13,1.18,.76,2.3,1.36,3.3,1.83,.07,0,.27-.01,.45-.15,.28-.22,.3-.56,.3-.61l-.3-1.67c.2,.15,.5,.33,.9,.46,.26,.08,.49,.12,.68,.13,.29,.03,.62,.08,.97,.17,.85,.23,1.5,.6,1.95,.91,.59,.61,1.39,1.31,2.4,1.98,1.11,.73,2.16,1.21,3,1.52,.23,.03,.54,.05,.9,0,.55-.08,.96-.3,1.2-.46Z"/></g></g></svg>