<?xml version="1.0" encoding="UTF-8"?><svg xmlns="http://www.w3.org/2000/svg" viewBox="0 0 103.65 164.63"><defs><style>.c{opacity:.88;}.c,.d,.e{fill:#fff;}.f{fill:blue;}.d{opacity:.71;}.g{fill:lime;}.e{opacity:.78;}.h{fill:red;}.i{fill:#ff0;}</style></defs><g id="a"/><g id="b"><g><path d="M49.27,79.63c-.33,11.67-.67,23.33-1,35v1h-4c-4.75-19.08-6.95-24.17-8-24-.37,.06-2,1-2,1h1c2.33,7.67,4.67,15.33,7,23h-11v25h-9l28,24h1c9.33-8,18.67-16,28-24h-8v-25h-15l3-14c-.67-.33-1.33-.67-2-1l-3,15h-4v-36h-1Z"/><path class="h" d="M54.27,99.63c1.29,.71,3.34,1.62,6,2,2.01,.29,3.74,.18,5,0-.67-1.33-1.33-2.67-2-4,4.84-2.07,36.17-15.98,40-43,.45-3.19,.57-6.87,0-11-.87-2.52-3.02-7.58-8-12-6.36-5.64-13.41-6.73-16-7-2.85-.47-9.55-1.17-17,2-5.58,2.38-9.16,5.89-11,8-1.05,1.48-2.07,3.15-3,5-4.65,9.25-4.6,18.39-4,24,1.3,6.08,3.63,13.78,8,22,2.26,4.26,4.68,7.92,7,11-1.67,1-3.33,2-5,3Z"/><path class="g" d="M31.27,24.63c2.13,.49,4.94,1.37,8,3,3.08,1.64,5.4,3.5,7,5,2.36-2.54,7.28-7.15,15-10,8.3-3.06,15.53-2.5,19-2-.08-1.24-.32-3.01-1-5-3-8.75-11.82-13.58-18-15-6.15-1.42-11.95-.01-11.95-.01h-.05c-4.06,1.01-10.03,4.04-14,10.01-3.87,5.82-4.05,11.71-4,14Z"/><path class="i" d="M31.27,95.63c.49-.65,1.76-2.18,4-3,2.83-1.04,5.3-.25,6,0-1.33-1.33-2.67-2.67-4-4,.49-1.84,1.36-4.34,3-7,1.34-2.17,2.79-3.82,4-5-1.76-3.21-5.12-10.36-5-20,.11-9.07,3.25-15.8,5-19-1.34-1.69-3.59-4.08-7-6-5.88-3.32-11.59-3.2-14-3-2.04,.12-9.65,.81-16,7C2.17,40.61,.71,46.39,.27,48.63c-.37,2.68-.61,7.08,1,12,1.38,4.21,3.64,7.39,7,11,7.84,8.42,17.15,14.31,24,18-.33,2-.67,4-1,6Z"/><path class="c" d="M53.27,41.63c1.4,2.27,8.37,1.21,13-2,3.91-2.72,7.4-7.84,6-10-1.37-2.11-7.17-1.04-11,1-5.16,2.75-9.43,8.69-8,11Z"/><path class="e" d="M4.18,47.3c1.22,2.03,6.8,.83,10.42-2.26,3.06-2.61,5.68-7.42,4.47-9.35-1.18-1.89-5.83-.71-8.84,1.28-4.06,2.68-7.28,8.26-6.05,10.33Z"/><path class="d" d="M38.53,16.16c1.29,2.16,7.7,1.15,11.95-1.9,3.6-2.59,6.8-7.47,5.52-9.52-1.26-2.01-6.59-.99-10.12,.95-4.75,2.62-8.67,8.27-7.36,10.48Z"/></g><g><path class="h" d="M42.68,126.88v8h-2.46v-3.11h-1.88v3.11h-2.46v-8h2.46v2.94h1.88v-2.94h2.46Z"/><path class="g" d="M47.53,135.01c-1.12,0-2.04-.37-2.75-1.12s-1.06-1.74-1.06-2.99,.34-2.18,1.02-2.96,1.62-1.17,2.82-1.17c1.11,0,2.02,.37,2.72,1.1s1.05,1.71,1.05,2.94-.35,2.29-1.06,3.05-1.62,1.15-2.74,1.15Zm-.01-1.82c.41,0,.71-.18,.89-.54s.27-1.02,.27-1.98c0-1.39-.37-2.09-1.12-2.09-.8,0-1.21,.79-1.21,2.38,0,1.49,.39,2.23,1.16,2.23Z"/><path class="f" d="M61.06,126.88v8h-2.28v-5.72l-1.48,5.72h-1.56l-1.54-5.72v5.72h-1.84v-8h3.21l1.16,4.25,1.11-4.25h3.22Z"/><path class="i" d="M68.47,132.97v1.91h-6.02v-8h6.02v1.85h-3.61v1.16h2.92v1.78h-2.92v1.31h3.61Z"/></g></g></svg>