<svg xmlns="http://www.w3.org/2000/svg" xmlns:xlink="http://www.w3.org/1999/xlink" viewBox="0 0 1000 500"><defs><style>.cls-1{fill:url(#linear-gradient);}.cls-2{fill:red;}.cls-3,.cls-6,.cls-7{fill:#fff;}.cls-4{fill:#f7931e;}.cls-5{fill:#d3ae89;}.cls-6{opacity:0.65;}.cls-7{opacity:0.78;}</style><linearGradient id="linear-gradient" x1="498.42" y1="-36.33" x2="501.32" y2="488.31" gradientUnits="userSpaceOnUse"><stop offset="0" stop-color="#3dc9e1"/><stop offset="0.17" stop-color="#88aeec"/><stop offset="0.97" stop-color="#c8def5"/></linearGradient></defs><g id="Layer_1" data-name="Layer 1"><rect class="cls-1" width="1000" height="500"/><path class="cls-2" d="M266.66,64.87h-21a144,144,0,0,1-.5-15.5c.07-3.32.24-6.5.5-9.5l18.5,3.5a19.61,19.61,0,0,0,2.5,21.5Z"/><path class="cls-3" d="M227.09,51.59a1.29,1.29,0,0,1,0-.44,1.58,1.58,0,0,1,.58-.89,25.7,25.7,0,0,1,7.44-.44c1,.09,4,.44,4,.44h0A18,18,0,0,1,246,54.7c1.9,2,1.22,2.42,3.43,4.88a22.28,22.28,0,0,0,2.87,2.66h13.17A18.89,18.89,0,0,0,268.33,60a15.94,15.94,0,0,0,2.87-3.55,7.48,7.48,0,0,1,2.86-.44,7.29,7.29,0,0,1,2.29.44,1.23,1.23,0,0,1,.58.44.87.87,0,0,1,0,.89h-4a25,25,0,0,1-2.87,3.11,27.21,27.21,0,0,1-3.43,2.66h-16A29.81,29.81,0,0,1,247.14,60c-2.12-2.6-2.34-3.82-4-5.32a14.26,14.26,0,0,0-6.3-3.11Z"/><path d="M227.09,65.34l-.18,0c-2.33-.26-4.52.94-5,2.69s1.07,3.6,3.43,4h53.27a4,4,0,0,0,3.44-2.66c.38-1.59-.95-2.93-2.29-3.55a6.41,6.41,0,0,0-3.44-.45v.45c2.18-.27,4.17.78,4.59,2.22a2.78,2.78,0,0,1-1.72,3.1H224.8a2.72,2.72,0,0,1-1.72-3.1c.4-1.35,2.1-2.32,4-2.22Z"/><path d="M270.63,71.56h1.71l-3.43-3.11a15.69,15.69,0,0,0,4.58-3.55,11.27,11.27,0,0,0,2.86-7.1h-4l-5.72,5.33h-16A19.57,19.57,0,0,1,246,58.25c-1.33-2.07-1.4-3.2-2.87-4.44a11.5,11.5,0,0,0-6.3-2.22h-9.74a52.63,52.63,0,0,0,3.44,8,57.79,57.79,0,0,0,5.15,8c-1.33,1.33-2.67,2.66-4,4h.89L236.26,68c.73.19,2.17.54,4,.88,0,0,8.06,1.5,28.06,0Z"/><path class="cls-4" d="M302.7,27.19c-.19-.05-.89.8-1.14,1.77a3.91,3.91,0,0,0,1.14,3.55,7.7,7.7,0,0,0,4,1.78c1.66.29,2.26,0,4,.44,1.07.29.76.39,2.29.89,1.68.54,2.6.6,3.44,1.33.4.35.7.78.57.89s-.73-.32-1.72-.45c-.76-.1-2,0-2.29.45s.44,1.2.58,1.33c.86.83,1.72.57,2.29,1.33.29.39.08.5.57,1.33l.57.89.57.88.58.89a4.87,4.87,0,0,1,.57,2.22c.09.92-.25,1.13,0,1.77.18.45.36.47.57.89a2.72,2.72,0,0,1,0,2.22,4.67,4.67,0,0,1-1.72,2.22,7.71,7.71,0,0,1-4,1.33,14.2,14.2,0,0,1-4.59-.89c-3.39-1-3.77-1.43-5.15-1.33-1.89.14-2.15,1.06-3.44.89-2.25-.3-3-3.3-4-3.11-.38.08-.55.6-.57.89-.05.59.45.93,1.14,1.77s1.07,1.31,1.15,1.78c.15.93-.56,1.22-.57,2.66,0,.61.12.64,0,.89-.32.64-1.32.77-3.44,1.33-2.9.76-3.27,1.12-3.44,1.33a2.13,2.13,0,0,0,0,2.22A5.93,5.93,0,0,1,289,65.34c-.79.55-1.38.7-1.71,1.34a1.25,1.25,0,0,0,0,1.33,1,1,0,0,0,.57.44c.51.11,1-.33,2.29-1.33,1.43-1.13,1.65-1.37,1.72-1.33s-.48,1.27-1.72,2.22-2,.53-2.86,1.33c-.68.63-1.1,1.66-.58,2.22a2.52,2.52,0,0,0,1.72.44c3.18-.07,6.25-5.87,6.88-7.1h8.59c3-1,4.1-2.16,4.58-3.11.33-.65.62-1.76,1.15-1.77a.7.7,0,0,1,.57.44c.16.42-.33.68-.57,1.33a1.74,1.74,0,0,0,0,1.34c.38.65,1.67.79,2.86.88,3.65.28,5.47.41,6.87,0,3.57-1.05,3.88-3.49,7.45-4,.7-.1,2.21-.21,2.29,0s-.13.15-.57.44a4.6,4.6,0,0,0-1.15.89,1.45,1.45,0,0,0,0,1.33,6.41,6.41,0,0,0,.58.89,10,10,0,0,1,.57.89c.24.83-.86,1.43-.57,1.77s1.64,0,1.71,0A7.16,7.16,0,0,0,333.06,64c1.11-1.1.9-1.21,2.29-2.66.87-.91,1.11-1,1.72-1.77.83-1,1.54-1.93,1.15-2.67-.26-.47-.69-.34-1.15-.88-.85-1,.17-2-.57-2.67a5.32,5.32,0,0,0-2.29-.44c-2.35-.22-2.94,0-3.44-.44s0-.94-.57-1.78c-.72-1-2-.87-2.29-1.77-.15-.42.11-.46,0-1.33-.09-.65-.15-1.13-.58-1.33-.2-.11-.35-.07-1.72,0a4.32,4.32,0,0,1-1.14,0c-.87-.31-1.22-1.81-.57-2.22s1.37.34,2.86,0a9.26,9.26,0,0,0,1.15-.45c1.47-.63,2.2-.94,2.29-1.33.14-.65-1.07-1.29-1.15-1.33a7.32,7.32,0,0,0-2.86-.44c-1.78-.17-2.72-.33-3.44-.89s-.47-1-1.15-1.33c-1-.41-2.07.41-2.86,0-.3-.15-.59-.5-.57-1.33a15.63,15.63,0,0,0,4.58,0,12.33,12.33,0,0,0,1.72-.44c.74-.25,1.76-.59,1.72-.89,0-.09-.13-.29-1.15-.45a7.59,7.59,0,0,1-1.72.89,10,10,0,0,1-1.72.45c-1,.16-4.58.74-5.72-.45-1-1,.44-2.47-.58-3.1a1.66,1.66,0,0,0-1.71,0c-.59.55,1,1.84.57,2.21s-3.38-.32-4-1.77c-.32-.74,0-1.44-.57-1.78a1.21,1.21,0,0,0-1.15,0c-.18.22.34.53.57,1.34.11.36.22.74,0,.88-.43.29-2.32-.28-2.86-1.33s.66-2.22,0-2.66a1.18,1.18,0,0,0-1.15,0c-.79.58,1.24,2.61.58,3.11-.44.32-2,0-2.87-.89C301,30.35,303.07,27.28,302.7,27.19Z"/><path class="cls-4" d="M367.24,27.19c-.2-.05-.9.8-1.15,1.77a3.9,3.9,0,0,0,1.15,3.55,7.64,7.64,0,0,0,4,1.78c1.65.29,2.25,0,4,.44,1.07.29.76.39,2.29.89s2.6.6,3.43,1.33c.4.35.7.78.58.89s-.73-.32-1.72-.45c-.77-.1-2,0-2.29.45s.44,1.2.57,1.33c.86.83,1.72.57,2.29,1.33.3.39.09.5.57,1.33l.58.89.57.88.57.89a4.88,4.88,0,0,1,.58,2.22c.09.92-.26,1.13,0,1.77.17.45.35.47.57.89a2.76,2.76,0,0,1,0,2.22,4.73,4.73,0,0,1-1.72,2.22,7.71,7.71,0,0,1-4,1.33,14.15,14.15,0,0,1-4.58-.89c-3.4-1-3.77-1.43-5.16-1.33-1.88.14-2.14,1.06-3.43.89-2.25-.3-3-3.3-4-3.11-.39.08-.55.6-.58.89,0,.59.45.93,1.15,1.77s1.07,1.31,1.14,1.78c.16.93-.56,1.22-.57,2.66,0,.61.12.64,0,.89-.31.64-1.31.77-3.43,1.33-2.9.76-3.27,1.12-3.44,1.33a2.11,2.11,0,0,0,0,2.22,6.05,6.05,0,0,1-1.72,1.77c-.8.55-1.39.7-1.72,1.34a1.28,1.28,0,0,0,0,1.33,1,1,0,0,0,.57.44c.51.11,1-.33,2.3-1.33,1.42-1.13,1.65-1.37,1.71-1.33s-.48,1.27-1.71,2.22-2,.53-2.87,1.33c-.67.63-1.1,1.66-.57,2.22a2.5,2.5,0,0,0,1.72.44c3.18-.07,6.24-5.87,6.87-7.1h8.59c3-1,4.11-2.16,4.59-3.11.33-.65.61-1.76,1.14-1.77a.69.69,0,0,1,.57.44c.16.42-.33.68-.57,1.33a1.79,1.79,0,0,0,0,1.34c.39.65,1.67.79,2.86.88,3.65.28,5.48.41,6.88,0,3.57-1.05,3.87-3.49,7.44-4,.71-.1,2.22-.21,2.3,0s-.13.15-.58.44a4.47,4.47,0,0,0-1.14.89,1.42,1.42,0,0,0,0,1.33,5.6,5.6,0,0,0,.57.89,7.81,7.81,0,0,1,.57.89c.24.83-.85,1.43-.57,1.77s1.64,0,1.72,0A7.21,7.21,0,0,0,397.6,64c1.1-1.1.9-1.21,2.29-2.66.87-.91,1.1-1,1.71-1.77.84-1,1.55-1.93,1.15-2.67-.26-.47-.69-.34-1.15-.88-.84-1,.18-2-.57-2.67-.27-.24-.95-.31-2.29-.44-2.34-.22-2.93,0-3.44-.44s0-.94-.57-1.78c-.71-1-2-.87-2.29-1.77-.15-.42.12-.46,0-1.33-.09-.65-.15-1.13-.57-1.33-.21-.11-.35-.07-1.72,0a4.43,4.43,0,0,1-1.15,0c-.86-.31-1.22-1.81-.57-2.22s1.38.34,2.86,0a9.26,9.26,0,0,0,1.15-.45c1.47-.63,2.21-.94,2.29-1.33.14-.65-1.06-1.29-1.14-1.33a7.38,7.38,0,0,0-2.87-.44c-1.78-.17-2.72-.33-3.43-.89s-.47-1-1.15-1.33c-1-.41-2.08.41-2.86,0-.3-.15-.59-.5-.58-1.33a15.71,15.71,0,0,0,4.59,0,12.14,12.14,0,0,0,1.71-.44c.74-.25,1.77-.59,1.72-.89,0-.09-.13-.29-1.14-.45a8.06,8.06,0,0,1-1.72.89,10.24,10.24,0,0,1-1.72.45c-1,.16-4.58.74-5.73-.45-1-1,.45-2.47-.57-3.1a1.68,1.68,0,0,0-1.72,0c-.58.55,1,1.84.57,2.21s-3.38-.32-4-1.77c-.32-.74.05-1.44-.57-1.78a1.19,1.19,0,0,0-1.14,0c-.18.22.34.53.57,1.34.1.36.21.74,0,.88-.43.29-2.32-.28-2.87-1.33s.66-2.22,0-2.66a1.16,1.16,0,0,0-1.14,0c-.79.58,1.24,2.61.57,3.11-.44.32-2,0-2.86-.89C365.57,30.35,367.6,27.28,367.24,27.19Z"/><path class="cls-4" d="M431.79,27.19c-.2-.05-.9.8-1.15,1.77a3.93,3.93,0,0,0,1.15,3.55,7.64,7.64,0,0,0,4,1.78c1.65.29,2.25,0,4,.44,1.07.29.76.39,2.29.89s2.6.6,3.44,1.33c.39.35.7.78.57.89s-.73-.32-1.72-.45c-.76-.1-2,0-2.29.45s.44,1.2.57,1.33c.87.83,1.73.57,2.29,1.33.3.39.09.5.58,1.33,0,.06,0,0,.57.89l.57.88.57.89a4.88,4.88,0,0,1,.58,2.22c.09.92-.26,1.13,0,1.77.17.45.35.47.57.89a2.76,2.76,0,0,1,0,2.22,4.73,4.73,0,0,1-1.72,2.22,7.71,7.71,0,0,1-4,1.33,14.15,14.15,0,0,1-4.58-.89c-3.39-1-3.77-1.43-5.16-1.33-1.88.14-2.14,1.06-3.43.89-2.25-.3-3-3.3-4-3.11-.38.08-.55.6-.57.89-.05.59.45.93,1.14,1.77s1.07,1.31,1.15,1.78c.15.93-.57,1.22-.58,2.66,0,.61.13.64,0,.89-.31.64-1.31.77-3.43,1.33-2.9.76-3.27,1.12-3.44,1.33a2.11,2.11,0,0,0,0,2.22A5.93,5.93,0,0,1,418,65.34c-.79.55-1.38.7-1.72,1.34a1.28,1.28,0,0,0,0,1.33,1,1,0,0,0,.58.44c.5.11,1-.33,2.29-1.33,1.43-1.13,1.65-1.37,1.72-1.33s-.49,1.27-1.72,2.22-2,.53-2.87,1.33c-.67.63-1.1,1.66-.57,2.22a2.51,2.51,0,0,0,1.72.44c3.18-.07,6.24-5.87,6.87-7.1h8.59c3-1,4.11-2.16,4.59-3.11.33-.65.61-1.76,1.14-1.77a.72.72,0,0,1,.58.44c.15.42-.33.68-.58,1.33a1.84,1.84,0,0,0,0,1.34c.39.65,1.68.79,2.87.88,3.65.28,5.47.41,6.87,0,3.57-1.05,3.88-3.49,7.45-4,.7-.1,2.21-.21,2.29,0s-.13.15-.57.44a4.6,4.6,0,0,0-1.15.89,1.42,1.42,0,0,0,0,1.33,6.78,6.78,0,0,0,.57.89c.37.55.56.83.58.89.23.83-.86,1.43-.58,1.77s1.65,0,1.72,0A7.21,7.21,0,0,0,462.15,64c1.1-1.1.9-1.21,2.29-2.66.87-.91,1.11-1,1.72-1.77.83-1,1.54-1.93,1.14-2.67-.25-.47-.69-.34-1.14-.88-.85-1,.17-2-.58-2.67-.27-.24-.95-.31-2.29-.44-2.34-.22-2.93,0-3.43-.44s0-.94-.58-1.78c-.71-1-2-.87-2.29-1.77-.14-.42.12-.46,0-1.33-.08-.65-.15-1.13-.57-1.33-.21-.11-.35-.07-1.72,0a4.28,4.28,0,0,1-1.14,0c-.87-.31-1.22-1.81-.58-2.22s1.38.34,2.87,0A9.34,9.34,0,0,0,457,43.6c1.48-.63,2.21-.94,2.29-1.33.14-.65-1.06-1.29-1.14-1.33a7.35,7.35,0,0,0-2.87-.44c-1.77-.17-2.71-.33-3.43-.89s-.47-1-1.15-1.33c-1-.41-2.07.41-2.86,0-.3-.15-.59-.5-.58-1.33a15.71,15.71,0,0,0,4.59,0,12.33,12.33,0,0,0,1.72-.44c.74-.25,1.76-.59,1.71-.89,0-.09-.13-.29-1.14-.45a8.06,8.06,0,0,1-1.72.89,10.24,10.24,0,0,1-1.72.45c-1,.16-4.58.74-5.73-.45-.95-1,.45-2.47-.57-3.1a1.68,1.68,0,0,0-1.72,0c-.58.55,1,1.84.58,2.21s-3.38-.32-4-1.77c-.33-.74,0-1.44-.58-1.78a1.19,1.19,0,0,0-1.14,0c-.18.22.34.53.57,1.34.11.36.21.74,0,.88-.43.29-2.32-.28-2.86-1.33s.65-2.22,0-2.66a1.18,1.18,0,0,0-1.15,0c-.79.58,1.24,2.61.57,3.11-.44.32-2,0-2.86-.89C430.13,30.35,432.16,27.28,431.79,27.19Z"/><path d="M276.26,60.73c2-.25,4.42-.5,6-1.93a4.4,4.4,0,0,0,1.21-2.51,7.08,7.08,0,0,1,1.74-3.54c4.08-4.37,11.09-4.51,16.61-4.7q19.27-.69,38.56-1.08c12.87-.24,25.74-.36,38.61-.28,12.65.08,25.29.53,37.93.79,13.57.27,27.3,0,40.52-3.32a.38.38,0,0,0-.2-.73c-11.92,3-24.27,3.49-36.51,3.35-12.59-.14-25.17-.69-37.76-.81-25.57-.25-51.15.32-76.7,1.17-6.1.2-13-.18-18.53,2.8a9.36,9.36,0,0,0-4.73,5c-.53,1.66-.52,3.1-2.29,4A13.8,13.8,0,0,1,276.26,60c-.48.06-.49.82,0,.76Z"/><ellipse class="cls-5" cx="255.16" cy="32.87" rx="9" ry="7.5"/><ellipse class="cls-3" cx="254.16" cy="39.87" rx="2.5" ry="12" transform="translate(169.47 282.79) rotate(-79.7)"/><path class="cls-2" d="M248.08,28.46l14.55-.59-8.47-16.5"/><ellipse class="cls-3" cx="255.43" cy="28.87" rx="9.99" ry="2.5"/><ellipse class="cls-3" cx="254.35" cy="11.74" rx="2.04" ry="1.96" transform="translate(86.3 203.02) rotate(-51.34)"/><path class="cls-3" d="M231.68,63.32c21.6-2.73,43,3.71,47.33,13.16,4.09,9-8.53,18.14-25.33,20.54a73.45,73.45,0,0,1-26-1.28c-.42,1.07-1.62,3.29-5.33,5.45a33.48,33.48,0,0,1-10,3.54A66.48,66.48,0,0,1,189.68,106a47.61,47.61,0,0,1-16-4.49c-7.58,3.85-18.83,5.46-29.33,4.17-14.77-1.81-20.19-8.38-20.67-9-13,3.88-29.41,3.45-40.66-1C73.55,92,69,86,71,80c.3-1.05,2.47-7.69,15.33-11.87,12.23-4,25.07-2.8,27.33-2.57-.14-1-.94-8.56,11.34-14.13A62.43,62.43,0,0,1,155.68,47c14.54,1.44,21.57,7.11,22.67,8A74.54,74.54,0,0,1,207,53.05C224,55.23,230.82,62.38,231.68,63.32Z"/><path class="cls-6" d="M57.13,35.3c-11.89-2.36-23.68,3.2-26,11.33C28.84,54.38,35.78,62.26,45,64.33a26.33,26.33,0,0,0,14.31-1.11,9.47,9.47,0,0,0,2.94,4.7,14.54,14.54,0,0,0,5.5,3,23.77,23.77,0,0,0,12.47,1.11A19.76,19.76,0,0,0,89,68.2a20.37,20.37,0,0,0,16.14,3.59c8.13-1.56,11.11-7.21,11.37-7.74,7.15,3.34,16.19,3,22.38-.83,5.21-3.19,7.7-8.38,6.6-13.55-.16-.9-1.35-6.62-8.43-10.23a25.9,25.9,0,0,0-15-2.21c.08-.89.52-7.37-6.24-12.16A23.73,23.73,0,0,0,99,21.2a19.35,19.35,0,0,0-12.47,6.91A27.12,27.12,0,0,0,70.7,26.45C61.37,28.33,57.6,34.49,57.13,35.3Z"/><path class="cls-7" d="M647,37.39c-16.16-1.87-32.19,2.55-35.4,9-3.06,6.17,6.38,12.45,18.95,14.1A59.65,59.65,0,0,0,650,59.65c.32.73,1.21,2.26,4,3.74a26.38,26.38,0,0,0,7.48,2.43,54,54,0,0,0,16.95.88,37.86,37.86,0,0,0,12-3.09c5.67,2.65,14.08,3.75,21.93,2.87,11.05-1.24,15.1-5.75,15.46-6.17,9.72,2.66,22,2.36,30.41-.66,7.08-2.55,10.47-6.68,9-10.8-.23-.72-1.85-5.28-11.47-8.15-9.15-2.74-18.75-1.92-20.44-1.76.11-.71.7-5.88-8.48-9.7a50.28,50.28,0,0,0-22.93-3.08c-10.88,1-16.13,4.87-17,5.5a60.84,60.84,0,0,0-21.44-1.32C652.74,31.84,647.62,36.75,647,37.39Z"/><path class="cls-3" d="M947.38,82.51c21.6-3.2,43,4.35,47.33,15.41,4.09,10.52-8.53,21.23-25.33,24a63,63,0,0,1-26-1.5c-.43,1.25-1.62,3.85-5.34,6.39A30,30,0,0,1,928,131a56.9,56.9,0,0,1-22.66,1.51,42.56,42.56,0,0,1-16-5.26c-7.59,4.5-18.83,6.39-29.33,4.88-14.77-2.12-20.19-9.8-20.67-10.52-13,4.53-29.42,4-40.67-1.13-9.46-4.34-14-11.39-12-18.41.31-1.23,2.47-9,15.34-13.9,12.23-4.67,25.06-3.28,27.33-3-.15-1.21-.94-10,11.33-16.53a54.4,54.4,0,0,1,30.67-5.27c14.54,1.69,21.57,8.32,22.67,9.4a64.27,64.27,0,0,1,28.66-2.26C939.68,73,946.52,81.41,947.38,82.51Z"/><path class="cls-3" d="M603.74,78.58c10.29-1.9,20.5,2.57,22.55,9.13,1.94,6.24-4.07,12.58-12.07,14.25a24.46,24.46,0,0,1-12.38-.89,7.56,7.56,0,0,1-2.54,3.78,12.88,12.88,0,0,1-4.76,2.45,22.07,22.07,0,0,1-10.8.89,17.8,17.8,0,0,1-7.62-3.11,18.69,18.69,0,0,1-14,2.89c-7-1.26-9.62-5.81-9.84-6.24-6.19,2.69-14,2.39-19.37-.66-4.51-2.58-6.67-6.76-5.72-10.91.15-.73,1.18-5.34,7.3-8.24a24,24,0,0,1,13-1.79c-.07-.71-.45-5.93,5.4-9.79a21.73,21.73,0,0,1,14.61-3.12c6.92,1,10.27,4.93,10.79,5.57A25,25,0,0,1,592,71.45C600.08,73,603.34,77.93,603.74,78.58Z"/><path class="cls-7" d="M492.88,19.7c-16.16-1.88-32.19,2.55-35.4,9-3.06,6.18,6.38,12.46,18.95,14.11A59.94,59.94,0,0,0,495.87,42c.32.73,1.21,2.25,4,3.74a26.4,26.4,0,0,0,7.48,2.42,53.59,53.59,0,0,0,16.95.89,37.86,37.86,0,0,0,12-3.09c5.67,2.65,14.08,3.75,21.94,2.87,11-1.25,15.09-5.75,15.45-6.17,9.72,2.66,22,2.36,30.42-.66,7.07-2.55,10.46-6.69,9-10.8-.23-.72-1.85-5.28-11.47-8.15-9.14-2.74-18.74-1.92-20.44-1.77.11-.71.71-5.87-8.48-9.69a50.21,50.21,0,0,0-22.93-3.09c-10.87,1-16.13,4.88-17,5.51a60.84,60.84,0,0,0-21.44-1.32C498.64,14.15,493.52,19.06,492.88,19.7Z"/></g><g id="Layer_2" data-name="Layer 2"><polygon class="cls-3" points="95.63 126.05 95.26 124.48 89.53 125.59 84.86 122.86 89.7 119.95 95.35 120.99 95.7 119.42 91.78 118.7 96.16 116.08 95.19 114.74 90.65 117.47 91.49 113.71 89.77 113.39 88.6 118.6 84.11 121.29 84.11 116.39 88.19 112.69 86.94 111.56 84.11 114.13 84.11 109.37 82.35 109.37 82.35 114.3 79.36 111.59 78.11 112.72 82.26 116.48 82.26 121.32 77.61 118.59 76.41 113.49 74.68 113.82 75.52 117.37 71.12 114.78 70.16 116.12 74.72 118.8 70.59 119.6 70.96 121.17 76.69 120.06 81.48 122.87 76.76 125.7 71.11 124.66 70.76 126.23 74.68 126.95 70.31 129.58 71.28 130.91 75.81 128.19 74.97 131.94 76.7 132.26 77.87 127.06 82.26 124.42 82.26 129.35 78.19 133.04 79.43 134.17 82.26 131.61 82.26 136.37 84.02 136.37 84.02 131.44 87.01 134.15 88.25 133.02 84.11 129.26 84.11 124.42 88.6 127.06 89.81 132.16 91.53 131.83 90.69 128.28 95.1 130.87 96.06 129.53 91.49 126.85 95.63 126.05"/><polygon class="cls-3" points="651 79.33 650.85 78.72 648.41 79.15 646.42 78.08 648.48 76.94 650.88 77.35 651.03 76.73 649.37 76.45 651.23 75.42 650.82 74.9 648.88 75.97 649.24 74.5 648.51 74.37 648.01 76.41 646.1 77.46 646.1 75.55 647.83 74.1 647.3 73.66 646.1 74.66 646.1 72.8 645.35 72.8 645.35 74.73 644.08 73.67 643.55 74.11 645.31 75.58 645.31 77.48 643.33 76.41 642.82 74.41 642.09 74.54 642.44 75.93 640.57 74.92 640.16 75.44 642.1 76.49 640.34 76.8 640.5 77.42 642.94 76.98 644.98 78.08 642.97 79.19 640.57 78.78 640.42 79.4 642.08 79.68 640.22 80.71 640.63 81.23 642.57 80.17 642.21 81.64 642.94 81.76 643.44 79.72 645.31 78.69 645.31 80.62 643.58 82.07 644.11 82.51 645.31 81.51 645.31 83.37 646.06 83.37 646.06 81.44 647.33 82.5 647.86 82.06 646.1 80.58 646.1 78.69 648.01 79.72 648.52 81.72 649.26 81.59 648.9 80.2 650.78 81.22 651.19 80.69 649.24 79.64 651 79.33"/><polygon class="cls-3" points="552.86 134.65 552.6 133.63 548.62 134.36 545.38 132.57 548.74 130.68 552.67 131.36 552.91 130.34 550.19 129.87 553.23 128.16 552.55 127.3 549.4 129.07 549.99 126.62 548.79 126.42 547.97 129.8 544.86 131.56 544.86 128.36 547.69 125.96 546.82 125.22 544.86 126.89 544.86 123.8 543.63 123.8 543.63 127.01 541.55 125.24 540.69 125.98 543.57 128.42 543.57 131.58 540.34 129.8 539.5 126.48 538.3 126.69 538.88 129 535.82 127.32 535.16 128.19 538.33 129.94 535.46 130.46 535.71 131.47 539.7 130.75 543.03 132.58 539.75 134.43 535.82 133.75 535.58 134.77 538.3 135.24 535.26 136.95 535.94 137.82 539.09 136.04 538.5 138.49 539.7 138.7 540.51 135.31 543.57 133.59 543.57 136.8 540.74 139.21 541.6 139.94 543.57 138.27 543.57 141.37 544.79 141.37 544.79 138.16 546.87 139.92 547.74 139.19 544.86 136.74 544.86 133.59 547.98 135.31 548.82 138.63 550.01 138.41 549.43 136.11 552.49 137.79 553.16 136.92 549.99 135.17 552.86 134.65"/><polygon class="cls-3" points="753.7 101.47 753.33 99.91 747.6 101.02 742.94 98.28 747.78 95.38 753.42 96.42 753.77 94.85 749.85 94.13 754.23 91.5 753.26 90.17 748.72 92.89 749.56 89.14 747.84 88.82 746.67 94.03 742.18 96.72 742.18 91.81 746.26 88.12 745.01 86.99 742.18 89.56 742.18 84.8 740.42 84.8 740.42 89.73 737.43 87.02 736.19 88.15 740.33 91.91 740.33 96.75 735.68 94.02 734.48 88.92 732.76 89.25 733.59 92.8 729.19 90.21 728.23 91.55 732.79 94.23 728.66 95.03 729.03 96.59 734.76 95.48 739.55 98.3 734.83 101.13 729.19 100.09 728.84 101.66 732.75 102.38 728.38 105.01 729.35 106.34 733.88 103.62 733.04 107.37 734.77 107.69 735.94 102.48 740.33 99.85 740.33 104.78 736.26 108.47 737.5 109.6 740.33 107.04 740.33 111.8 742.09 111.8 742.09 106.86 745.08 109.58 746.33 108.44 742.18 104.69 742.18 99.85 746.67 102.48 747.88 107.59 749.6 107.26 748.77 103.71 753.17 106.3 754.13 104.96 749.56 102.28 753.7 101.47"/><polygon class="cls-3" points="985.7 149.47 985.33 147.91 979.6 149.02 974.94 146.28 979.78 143.38 985.42 144.42 985.77 142.85 981.85 142.13 986.23 139.5 985.26 138.17 980.72 140.89 981.56 137.14 979.84 136.82 978.67 142.03 974.18 144.72 974.18 139.81 978.26 136.12 977.01 134.99 974.18 137.56 974.18 132.8 972.42 132.8 972.42 137.73 969.43 135.02 968.19 136.15 972.33 139.91 972.33 144.75 967.68 142.02 966.48 136.92 964.76 137.25 965.59 140.79 961.19 138.21 960.23 139.55 964.79 142.23 960.66 143.03 961.03 144.59 966.76 143.48 971.55 146.3 966.83 149.13 961.19 148.09 960.84 149.66 964.75 150.38 960.38 153.01 961.35 154.34 965.88 151.62 965.04 155.37 966.77 155.69 967.94 150.49 972.33 147.85 972.33 152.78 968.26 156.47 969.5 157.6 972.33 155.04 972.33 159.8 974.09 159.8 974.09 154.87 977.08 157.57 978.33 156.44 974.18 152.69 974.18 147.85 978.67 150.48 979.88 155.59 981.6 155.26 980.77 151.71 985.17 154.3 986.13 152.96 981.56 150.28 985.7 149.47"/><polygon class="cls-3" points="260.87 118.8 260.67 117.95 257.59 118.55 255.08 117.08 257.68 115.51 260.72 116.07 260.91 115.22 258.8 114.83 261.16 113.42 260.63 112.7 258.19 114.17 258.64 112.14 257.72 111.97 257.09 114.78 254.67 116.23 254.67 113.58 256.87 111.59 256.19 110.98 254.67 112.36 254.67 109.8 253.72 109.8 253.72 112.46 252.11 111 251.44 111.61 253.67 113.63 253.67 116.25 251.17 114.78 250.52 112.02 249.59 112.2 250.04 114.11 247.67 112.72 247.16 113.44 249.62 114.89 247.39 115.32 247.59 116.16 250.67 115.56 253.25 117.08 250.71 118.61 247.67 118.05 247.48 118.9 249.59 119.29 247.24 120.7 247.76 121.42 250.2 119.95 249.75 121.98 250.68 122.15 251.31 119.34 253.67 117.92 253.67 120.58 251.48 122.57 252.15 123.18 253.67 121.8 253.67 124.37 254.62 124.37 254.62 121.71 256.23 123.17 256.9 122.56 254.67 120.53 254.67 117.92 257.09 119.34 257.74 122.1 258.67 121.92 258.22 120 260.59 121.4 261.1 120.68 258.64 119.23 260.87 118.8"/><polygon class="cls-3" points="180.56 189.65 180.29 188.63 176.15 189.36 172.78 187.57 176.28 185.68 180.36 186.36 180.61 185.34 177.78 184.87 180.94 183.16 180.24 182.29 176.96 184.07 177.57 181.62 176.32 181.41 175.48 184.8 172.24 186.56 172.24 183.36 175.18 180.96 174.28 180.22 172.24 181.89 172.24 178.8 170.97 178.8 170.97 182.01 168.81 180.24 167.91 180.98 170.9 183.42 170.9 186.58 167.54 184.8 166.67 181.48 165.43 181.69 166.03 184 162.85 182.32 162.16 183.19 165.46 184.94 162.47 185.46 162.74 186.47 166.88 185.75 170.34 187.58 166.93 189.43 162.85 188.75 162.59 189.77 165.43 190.24 162.26 191.95 162.97 192.82 166.24 191.04 165.64 193.49 166.88 193.7 167.73 190.31 170.9 188.59 170.9 191.8 167.96 194.21 168.86 194.94 170.9 193.27 170.9 196.37 172.17 196.37 172.17 193.16 174.33 194.92 175.23 194.19 172.24 191.74 172.24 188.59 175.49 190.31 176.35 193.63 177.6 193.41 177 191.11 180.18 192.79 180.87 191.92 177.57 190.17 180.56 189.65"/><polygon class="cls-3" points="332.41 100.35 332.17 99.44 328.52 100.09 325.54 98.49 328.63 96.8 332.23 97.41 332.45 96.5 329.96 96.08 332.75 94.54 332.13 93.77 329.23 95.35 329.77 93.17 328.67 92.98 327.92 96.01 325.06 97.58 325.06 94.72 327.66 92.57 326.87 91.92 325.06 93.41 325.06 90.64 323.94 90.64 323.94 93.51 322.03 91.93 321.24 92.59 323.88 94.78 323.88 97.6 320.91 96.01 320.15 93.04 319.05 93.23 319.58 95.3 316.77 93.79 316.16 94.57 319.07 96.13 316.43 96.6 316.67 97.51 320.32 96.86 323.38 98.5 320.37 100.15 316.77 99.55 316.54 100.46 319.04 100.88 316.25 102.41 316.87 103.19 319.77 101.6 319.23 103.79 320.33 103.97 321.08 100.94 323.88 99.41 323.88 102.28 321.28 104.43 322.07 105.09 323.88 103.6 323.88 106.37 325 106.37 325 103.5 326.91 105.07 327.7 104.42 325.06 102.23 325.06 99.41 327.93 100.94 328.69 103.92 329.79 103.72 329.26 101.66 332.07 103.17 332.68 102.38 329.77 100.82 332.41 100.35"/><polygon class="cls-3" points="521.38 64.76 521.17 64.06 517.97 64.56 515.37 63.34 518.07 62.04 521.22 62.5 521.42 61.8 519.23 61.48 521.68 60.31 521.13 59.71 518.6 60.93 519.07 59.25 518.11 59.11 517.45 61.44 514.95 62.64 514.95 60.45 517.22 58.8 516.53 58.3 514.95 59.44 514.95 57.31 513.97 57.31 513.97 59.52 512.3 58.31 511.6 58.81 513.91 60.49 513.91 62.65 511.32 61.43 510.65 59.15 509.69 59.3 510.15 60.88 507.69 59.73 507.16 60.33 509.71 61.53 507.4 61.88 507.61 62.58 510.8 62.09 513.48 63.34 510.84 64.61 507.69 64.14 507.5 64.84 509.68 65.16 507.24 66.34 507.78 66.93 510.32 65.72 509.85 67.39 510.81 67.53 511.46 65.21 513.91 64.03 513.91 66.23 511.64 67.88 512.34 68.39 513.91 67.24 513.91 69.37 514.9 69.37 514.9 67.17 516.57 68.38 517.26 67.87 514.95 66.19 514.95 64.03 517.46 65.21 518.13 67.49 519.09 67.34 518.63 65.76 521.08 66.91 521.62 66.31 519.07 65.12 521.38 64.76"/><polygon class="cls-3" points="52.62 74.81 52.45 74.13 49.87 74.61 47.77 73.41 49.95 72.13 52.49 72.58 52.65 71.89 50.89 71.58 52.85 70.42 52.42 69.83 50.38 71.03 50.76 69.37 49.98 69.23 49.45 71.53 47.44 72.72 47.44 70.55 49.27 68.92 48.71 68.43 47.44 69.56 47.44 67.46 46.64 67.46 46.64 69.63 45.3 68.44 44.74 68.94 46.6 70.59 46.6 72.73 44.51 71.53 43.97 69.28 43.19 69.42 43.57 70.99 41.59 69.84 41.16 70.44 43.21 71.62 41.35 71.97 41.52 72.66 44.09 72.17 46.25 73.41 44.13 74.66 41.59 74.2 41.43 74.89 43.19 75.21 41.22 76.37 41.66 76.96 43.7 75.76 43.32 77.42 44.1 77.56 44.63 75.26 46.6 74.1 46.6 76.27 44.77 77.9 45.33 78.4 46.6 77.27 46.6 79.37 47.39 79.37 47.39 77.19 48.74 78.39 49.3 77.89 47.44 76.23 47.44 74.1 49.46 75.26 50 77.51 50.77 77.37 50.4 75.8 52.38 76.94 52.81 76.35 50.76 75.17 52.62 74.81"/><polygon class="cls-3" points="620.74 156.75 620.6 156.2 618.45 156.59 616.69 155.63 618.51 154.61 620.64 154.98 620.77 154.43 619.3 154.18 620.94 153.25 620.58 152.79 618.87 153.74 619.19 152.43 618.54 152.31 618.1 154.14 616.41 155.08 616.41 153.36 617.94 152.07 617.47 151.67 616.41 152.57 616.41 150.9 615.75 150.9 615.75 152.63 614.62 151.68 614.15 152.08 615.71 153.4 615.71 155.09 613.96 154.14 613.51 152.35 612.86 152.47 613.18 153.71 611.52 152.8 611.16 153.27 612.88 154.21 611.32 154.49 611.46 155.04 613.62 154.65 615.42 155.64 613.64 156.63 611.52 156.26 611.39 156.81 612.86 157.07 611.21 157.99 611.58 158.46 613.29 157.5 612.97 158.82 613.62 158.93 614.06 157.1 615.71 156.18 615.71 157.91 614.18 159.2 614.65 159.6 615.71 158.7 615.71 160.37 616.38 160.37 616.38 158.64 617.5 159.59 617.97 159.19 616.41 157.88 616.41 156.18 618.1 157.1 618.55 158.89 619.2 158.78 618.89 157.53 620.54 158.44 620.91 157.97 619.19 157.03 620.74 156.75"/><polygon class="cls-3" points="827 167.49 826.74 166.44 822.73 167.19 819.46 165.36 822.85 163.42 826.8 164.12 827.05 163.07 824.31 162.59 827.37 160.84 826.69 159.95 823.51 161.77 824.1 159.26 822.89 159.05 822.08 162.52 818.93 164.31 818.93 161.05 821.79 158.59 820.91 157.83 818.93 159.54 818.93 156.37 817.7 156.37 817.7 159.66 815.61 157.85 814.73 158.6 817.63 161.11 817.63 164.34 814.38 162.52 813.54 159.11 812.33 159.34 812.91 161.7 809.83 159.98 809.16 160.87 812.36 162.66 809.46 163.19 809.72 164.23 813.73 163.49 817.09 165.37 813.78 167.26 809.83 166.56 809.58 167.61 812.33 168.09 809.26 169.84 809.94 170.73 813.12 168.91 812.53 171.42 813.74 171.63 814.56 168.16 817.63 166.4 817.63 169.69 814.78 172.15 815.65 172.91 817.63 171.2 817.63 174.37 818.87 174.37 818.87 171.08 820.96 172.89 821.84 172.13 818.93 169.63 818.93 166.4 822.08 168.16 822.92 171.56 824.13 171.34 823.54 168.98 826.63 170.7 827.3 169.81 824.1 168.02 827 167.49"/><polygon class="cls-3" points="896.31 208.35 896.19 207.75 894.36 208.18 892.87 207.11 894.41 205.98 896.22 206.39 896.33 205.78 895.08 205.5 896.48 204.48 896.17 203.96 894.72 205.02 894.99 203.56 894.43 203.43 894.06 205.46 892.62 206.5 892.62 204.6 893.93 203.16 893.53 202.72 892.62 203.72 892.62 201.87 892.06 201.87 892.06 203.79 891.1 202.73 890.71 203.17 892.03 204.63 892.03 206.52 890.54 205.46 890.16 203.47 889.61 203.6 889.87 204.98 888.47 203.97 888.16 204.49 889.62 205.54 888.3 205.85 888.41 206.46 890.25 206.03 891.78 207.12 890.27 208.22 888.46 207.82 888.35 208.43 889.61 208.71 888.21 209.73 888.52 210.25 889.97 209.19 889.7 210.65 890.25 210.77 890.63 208.75 892.03 207.72 892.03 209.64 890.73 211.07 891.13 211.51 892.03 210.52 892.03 212.37 892.6 212.37 892.6 210.45 893.55 211.5 893.95 211.06 892.62 209.6 892.62 207.72 894.06 208.75 894.45 210.73 895 210.6 894.73 209.22 896.14 210.23 896.45 209.71 894.99 208.67 896.31 208.35"/><polygon class="cls-3" points="400.59 112.65 400.42 112.09 397.85 112.49 395.76 111.5 397.93 110.46 400.46 110.83 400.62 110.27 398.86 110.01 400.83 109.06 400.39 108.58 398.36 109.56 398.73 108.21 397.96 108.09 397.43 109.97 395.42 110.94 395.42 109.17 397.25 107.84 396.69 107.44 395.42 108.36 395.42 106.64 394.63 106.64 394.63 108.42 393.29 107.44 392.73 107.85 394.59 109.2 394.59 110.95 392.5 109.97 391.96 108.13 391.19 108.25 391.56 109.53 389.59 108.59 389.16 109.08 391.21 110.04 389.35 110.33 389.52 110.89 392.09 110.49 394.24 111.51 392.12 112.53 389.59 112.15 389.43 112.72 391.19 112.98 389.22 113.92 389.66 114.4 391.7 113.42 391.32 114.78 392.09 114.89 392.62 113.02 394.59 112.06 394.59 113.84 392.76 115.17 393.32 115.58 394.59 114.66 394.59 116.37 395.38 116.37 395.38 114.59 396.72 115.57 397.28 115.16 395.42 113.81 395.42 112.06 397.44 113.01 397.98 114.85 398.75 114.73 398.38 113.46 400.35 114.39 400.78 113.91 398.73 112.94 400.59 112.65"/></g></svg>