<?xml version="1.0" encoding="UTF-8"?><svg id="a" xmlns="http://www.w3.org/2000/svg" viewBox="0 0 108.8 78.98"><path d="M3.17,20.24c7.95-.08,15.9-.17,23.85-.25C35.34,13.33,43.67,6.67,51.99,0c.24-.01,1.17-.05,2.01,.62,.63,.5,.87,1.13,.96,1.39l.02,74.87c-.07,.24-.29,.96-1,1.51-.83,.64-1.73,.6-1.95,.58-8.33-6.33-16.66-12.66-24.99-18.98-8.01,0-16.02,0-24.03,0-.45-.2-1.14-.58-1.81-1.26-.64-.65-1-1.31-1.21-1.75,.01-11.66,.02-23.32,.03-34.98l3.14-1.78Z"/><path d="M92.39,32.97c-3-3.01-6-6.02-9-9.03-.21-.04-2.34-.43-3.94,1.07-1.29,1.22-1.7,3.18-1.02,4.93,3,3.01,6,6.02,9,9.03,.05,.1,.13,.3,.13,.56,0,.19-.04,.34-.08,.44-3,3.01-6,6.02-9,9.03-.74,1.77-.33,3.78,.99,4.99,1.62,1.49,3.79,1,3.97,.96,3-2.98,6.01-5.96,9.01-8.95,.15-.09,.52-.28,1.02-.27,.48,0,.83,.18,.98,.27,3,2.99,6,5.98,9,8.97,.18,.04,2.36,.53,3.99-.96,1.33-1.22,1.74-3.23,.99-5.01l-8.99-9.01s-.21-.26-.19-.57c.02-.22,.13-.37,.18-.43l9.02-9.06c.69-1.75,.28-3.71-1.02-4.93-1.63-1.53-3.8-1.09-3.99-1.04l-9,9.08c-.12,.09-.46,.32-.94,.33-.61,.02-1.02-.3-1.12-.39Z"/></svg>