<?xml version="1.0" encoding="UTF-8"?><svg xmlns="http://www.w3.org/2000/svg" xmlns:xlink="http://www.w3.org/1999/xlink" viewBox="0 0 1000 500"><defs><style>.d{opacity:.65;}.d,.e,.f{fill:#ccc;}.g{fill:url(#b);}.f{opacity:.78;}.h{fill:#29abe2;}</style><linearGradient id="b" x1="501.05" y1="-210.69" x2="498.48" y2="913.02" gradientTransform="matrix(1, 0, 0, 1, 0, 0)" gradientUnits="userSpaceOnUse"><stop offset="0" stop-color="#1f154e"/><stop offset=".33" stop-color="#3b6d90"/><stop offset="1" stop-color="#000"/></linearGradient></defs><g id="a"><rect class="g" width="1000" height="500"/></g><g id="c"><g><path class="f" d="M43.58,43.88c-17.66-3.06-35.18,4.15-38.68,14.71-3.34,10.05,6.98,20.27,20.7,22.96,9.72,1.9,18.36-.52,21.25-1.43,.35,1.19,1.32,3.68,4.36,6.1,3,2.39,6.46,3.49,8.17,3.95,2.03,.67,9.39,2.9,18.52,1.43,6.98-1.12,11.34-3.82,13.08-5.02,6.2,4.3,15.39,6.1,23.97,4.66,12.07-2.02,16.5-9.36,16.89-10.04,10.62,4.33,24.04,3.85,33.23-1.08,7.74-4.14,11.44-10.88,9.81-17.58-.25-1.17-2.02-8.59-12.53-13.27-10-4.45-20.49-3.13-22.34-2.87,.12-1.16,.77-9.57-9.26-15.78-1.45-.9-11.42-6.87-25.06-5.02-11.88,1.61-17.63,7.94-18.52,8.97-1.83-.71-11.44-4.26-23.43-2.15-13.86,2.44-19.46,10.43-20.16,11.48Z"/><path class="e" d="M241.16,78.95c21.6-2.73,43.04,3.71,47.33,13.16,4.09,8.99-8.53,18.14-25.33,20.54-11.89,1.7-22.46-.47-26-1.28-.43,1.07-1.62,3.29-5.33,5.46-3.67,2.14-7.91,3.12-10,3.53-2.48,.6-11.49,2.6-22.67,1.28-8.54-1-13.87-3.41-16-4.49-7.59,3.85-18.83,5.46-29.33,4.17-14.76-1.81-20.19-8.37-20.67-8.99-12.99,3.87-29.42,3.44-40.67-.96-9.47-3.71-14-9.73-12-15.73,.3-1.05,2.47-7.69,15.33-11.88,12.23-3.98,25.07-2.8,27.33-2.57-.15-1.03-.94-8.56,11.33-14.12,1.78-.81,13.98-6.15,30.67-4.49,14.54,1.44,21.57,7.1,22.67,8.02,2.23-.63,14-3.81,28.67-1.93,16.96,2.18,23.81,9.33,24.67,10.27Z"/><path class="d" d="M225.6,50.93c-11.89-2.35-23.68,3.2-26.04,11.34-2.25,7.75,4.7,15.63,13.94,17.69,6.54,1.46,12.36-.4,14.31-1.11,.23,.92,.89,2.84,2.93,4.7,2.02,1.84,4.35,2.69,5.5,3.04,1.37,.52,6.32,2.24,12.47,1.11,4.7-.86,7.63-2.94,8.8-3.87,4.17,3.32,10.36,4.7,16.14,3.59,8.12-1.56,11.11-7.21,11.37-7.74,7.15,3.34,16.19,2.97,22.38-.83,5.21-3.19,7.7-8.39,6.6-13.55-.17-.9-1.36-6.62-8.44-10.23-6.73-3.43-13.79-2.41-15.04-2.21,.08-.89,.52-7.37-6.24-12.17-.98-.7-7.69-5.29-16.87-3.87-8,1.24-11.87,6.12-12.47,6.91-1.23-.54-7.7-3.28-15.77-1.66-9.33,1.88-13.1,8.04-13.57,8.85Z"/></g><path class="f" d="M580.45,44.02c-16.16-1.88-32.19,2.55-35.4,9.03-3.06,6.17,6.38,12.45,18.95,14.1,8.89,1.17,16.8-.32,19.44-.88,.32,.73,1.21,2.26,3.99,3.75,2.74,1.47,5.91,2.14,7.48,2.42,1.86,.41,8.59,1.78,16.95,.88,6.39-.69,10.38-2.34,11.97-3.08,5.67,2.64,14.08,3.75,21.94,2.86,11.04-1.24,15.1-5.75,15.46-6.17,9.72,2.66,22,2.36,30.41-.66,7.08-2.55,10.47-6.68,8.97-10.8-.23-.72-1.85-5.28-11.47-8.15-9.15-2.73-18.75-1.92-20.44-1.76,.11-.71,.71-5.88-8.48-9.69-1.33-.55-10.45-4.22-22.94-3.08-10.87,.99-16.13,4.88-16.95,5.51-1.67-.43-10.47-2.62-21.44-1.32-12.69,1.5-17.81,6.41-18.45,7.05Z"/><path class="e" d="M945.85,37.14c21.6-3.2,43.04,4.35,47.33,15.41,4.09,10.53-8.53,21.24-25.33,24.05-11.89,1.99-22.46-.55-26-1.5-.43,1.25-1.62,3.85-5.33,6.39-3.67,2.5-7.91,3.66-10,4.13-2.48,.7-11.49,3.04-22.67,1.5-8.54-1.18-13.87-4-16-5.26-7.59,4.51-18.83,6.39-29.33,4.89-14.76-2.12-20.19-9.8-20.67-10.52-12.99,4.54-29.42,4.03-40.67-1.13-9.47-4.34-14-11.4-12-18.41,.3-1.23,2.47-9,15.33-13.9,12.23-4.66,25.07-3.27,27.33-3.01-.15-1.21-.94-10.02,11.33-16.53,1.78-.94,13.98-7.2,30.67-5.26,14.54,1.69,21.57,8.32,22.67,9.39,2.23-.74,14-4.46,28.67-2.25,16.96,2.55,23.81,10.93,24.67,12.02Z"/><path class="d" d="M893.3,122.27c-11.89-2.35-23.68,3.2-26.04,11.34-2.25,7.75,4.7,15.63,13.94,17.69,6.54,1.46,12.36-.4,14.31-1.11,.23,.92,.89,2.84,2.93,4.7,2.02,1.84,4.35,2.69,5.5,3.04,1.37,.52,6.32,2.24,12.47,1.11,4.7-.86,7.63-2.94,8.8-3.87,4.17,3.32,10.36,4.7,16.14,3.59,8.12-1.56,11.11-7.21,11.37-7.74,7.15,3.34,16.19,2.97,22.38-.83,5.21-3.19,7.7-8.39,6.6-13.55-.17-.9-1.36-6.62-8.44-10.23-6.73-3.43-13.79-2.41-15.04-2.21,.08-.89,.52-7.37-6.24-12.17-.98-.7-7.69-5.29-16.87-3.87-8,1.24-11.87,6.12-12.47,6.91-1.23-.54-7.7-3.28-15.77-1.66-9.33,1.88-13.1,8.04-13.57,8.85Z"/><path class="e" d="M472.22,37.21c10.29-1.9,20.5,2.58,22.54,9.13,1.95,6.24-4.07,12.59-12.07,14.25-5.66,1.18-10.7-.32-12.38-.89-.2,.74-.77,2.28-2.54,3.79-1.75,1.48-3.77,2.17-4.76,2.45-1.18,.42-5.47,1.8-10.8,.89-4.07-.7-6.61-2.37-7.62-3.12-3.61,2.67-8.97,3.79-13.97,2.89-7.03-1.26-9.61-5.81-9.84-6.24-6.19,2.69-14.01,2.39-19.37-.67-4.51-2.57-6.67-6.75-5.72-10.91,.15-.73,1.18-5.33,7.3-8.24,5.83-2.76,11.94-1.94,13.02-1.78-.07-.72-.45-5.94,5.4-9.8,.85-.56,6.66-4.26,14.61-3.12,6.93,1,10.27,4.93,10.8,5.57,1.06-.44,6.67-2.64,13.65-1.34,8.08,1.51,11.34,6.48,11.75,7.13Z"/><path class="e" d="M765.23,102.7c13.13-2.53,26.16,3.44,28.77,12.18,2.48,8.33-5.19,16.79-15.4,19.02-7.23,1.57-13.65-.43-15.8-1.19-.26,.99-.98,3.05-3.24,5.05-2.23,1.98-4.81,2.89-6.08,3.27-1.51,.56-6.98,2.4-13.78,1.19-5.19-.93-8.43-3.16-9.73-4.16-4.61,3.57-11.45,5.05-17.83,3.86-8.97-1.68-12.27-7.75-12.56-8.32-7.9,3.59-17.88,3.19-24.72-.89-5.75-3.43-8.51-9.01-7.29-14.56,.19-.97,1.5-7.12,9.32-10.99,7.43-3.69,15.24-2.59,16.61-2.38-.09-.96-.57-7.92,6.89-13.07,1.08-.75,8.5-5.69,18.64-4.16,8.84,1.33,13.11,6.58,13.78,7.43,1.36-.58,8.51-3.53,17.42-1.78,10.31,2.02,14.47,8.64,14.99,9.51Z"/><path class="h" d="M734.95,218.81c.1,1.96-1.12,4.22-2.31,4.25-1.29,.03-2.84-2.56-2.62-4.8,.11-1.09,.55-1.2,1.23-3.15,.87-2.51,.76-4.11,1.08-4.11,.32,0,.29,1.69,1.23,4.25,.79,2.15,1.32,2.35,1.39,3.56Z"/><path class="h" d="M984.09,198.88c.1,1.96-1.12,4.22-2.31,4.25-1.29,.03-2.84-2.56-2.62-4.8,.11-1.09,.55-1.2,1.23-3.15,.87-2.51,.76-4.11,1.08-4.11,.32,0,.29,1.69,1.23,4.25,.79,2.15,1.32,2.35,1.39,3.56Z"/><path class="h" d="M527.05,293.35c.1,1.96-1.12,4.22-2.31,4.25-1.29,.03-2.84-2.56-2.62-4.8,.11-1.09,.55-1.2,1.23-3.15,.87-2.51,.76-4.11,1.08-4.11,.32,0,.29,1.69,1.23,4.25,.79,2.15,1.32,2.35,1.39,3.56Z"/><path class="h" d="M843.04,245.98c.1,1.96-1.12,4.22-2.31,4.25-1.29,.03-2.84-2.56-2.62-4.8,.11-1.09,.55-1.2,1.23-3.15,.87-2.51,.76-4.11,1.08-4.11,.32,0,.29,1.69,1.23,4.25,.79,2.15,1.32,2.35,1.39,3.56Z"/><path class="h" d="M880.19,187.05c.1,1.96-1.12,4.22-2.31,4.25-1.29,.03-2.84-2.56-2.62-4.8,.11-1.09,.55-1.2,1.23-3.15,.87-2.51,.76-4.11,1.08-4.11,.32,0,.29,1.69,1.23,4.25,.79,2.15,1.32,2.35,1.39,3.56Z"/><path class="h" d="M458.5,257.55c.1,1.96-1.12,4.22-2.31,4.25-1.29,.03-2.84-2.56-2.62-4.8,.11-1.09,.55-1.2,1.23-3.15,.87-2.51,.76-4.11,1.08-4.11,.32,0,.29,1.69,1.23,4.25,.79,2.15,1.32,2.35,1.39,3.56Z"/><path class="h" d="M956.61,263.37c.1,1.96-1.12,4.22-2.31,4.25-1.29,.03-2.84-2.56-2.62-4.8,.11-1.09,.55-1.2,1.23-3.15,.87-2.51,.76-4.11,1.08-4.11,.32,0,.29,1.69,1.23,4.25,.79,2.15,1.32,2.35,1.39,3.56Z"/><path class="h" d="M901.31,265.84c.1,1.96-1.12,4.22-2.31,4.25-1.29,.03-2.84-2.56-2.62-4.8,.11-1.09,.55-1.2,1.23-3.15,.87-2.51,.76-4.11,1.08-4.11,.32,0,.29,1.69,1.23,4.25,.79,2.15,1.32,2.35,1.39,3.56Z"/><path class="h" d="M222.17,205.78c.1,1.96-1.12,4.22-2.31,4.25-1.29,.03-2.84-2.56-2.62-4.8,.11-1.09,.55-1.2,1.23-3.15,.87-2.51,.76-4.11,1.08-4.11,.32,0,.29,1.69,1.23,4.25,.79,2.15,1.32,2.35,1.39,3.56Z"/><path class="h" d="M316.32,182.84c.1,1.96-1.12,4.22-2.31,4.25-1.29,.03-2.84-2.56-2.62-4.8,.11-1.09,.55-1.2,1.23-3.15,.87-2.51,.76-4.11,1.08-4.11,.32,0,.29,1.69,1.23,4.25,.79,2.15,1.32,2.35,1.39,3.56Z"/><path class="h" d="M437.28,105.01c.06,1.17-.62,2.53-1.28,2.55-.71,.02-1.57-1.53-1.45-2.87,.06-.65,.3-.72,.68-1.89,.48-1.5,.42-2.46,.6-2.46,.18,0,.16,1.01,.68,2.55,.44,1.29,.73,1.41,.77,2.13Z"/><path class="h" d="M336.27,128.95c.1,1.96-1.12,4.22-2.31,4.25-1.29,.03-2.84-2.56-2.62-4.8,.11-1.09,.55-1.2,1.23-3.15,.87-2.51,.76-4.11,1.08-4.11,.32,0,.29,1.69,1.23,4.25,.79,2.15,1.32,2.35,1.39,3.56Z"/><path class="h" d="M787.42,177.01c.1,1.96-1.12,4.22-2.31,4.25-1.29,.03-2.84-2.56-2.62-4.8,.11-1.09,.55-1.2,1.23-3.15,.87-2.51,.76-4.11,1.08-4.11,.32,0,.29,1.69,1.23,4.25,.79,2.15,1.32,2.35,1.39,3.56Z"/><path class="h" d="M643.37,116.48c.1,1.96-1.12,4.22-2.31,4.25-1.29,.03-2.84-2.56-2.62-4.8,.11-1.09,.55-1.2,1.23-3.15,.87-2.51,.76-4.11,1.08-4.11,.32,0,.29,1.69,1.23,4.25,.79,2.15,1.32,2.35,1.39,3.56Z"/><path class="h" d="M531.73,144.52c.1,1.96-1.12,4.22-2.31,4.25-1.29,.03-2.84-2.56-2.62-4.8,.11-1.09,.55-1.2,1.23-3.15,.87-2.51,.76-4.11,1.08-4.11,.32,0,.29,1.69,1.23,4.25,.79,2.15,1.32,2.35,1.39,3.56Z"/><path class="h" d="M647.83,279.33c.1,1.96-1.12,4.22-2.31,4.25-1.29,.03-2.84-2.56-2.62-4.8,.11-1.09,.55-1.2,1.23-3.15,.87-2.51,.76-4.11,1.08-4.11,.32,0,.29,1.69,1.23,4.25,.79,2.15,1.32,2.35,1.39,3.56Z"/><path class="h" d="M580.54,211.8c.1,1.96-1.12,4.22-2.31,4.25-1.29,.03-2.84-2.56-2.62-4.8,.11-1.09,.55-1.2,1.23-3.15,.87-2.51,.76-4.11,1.08-4.11,.32,0,.29,1.69,1.23,4.25,.79,2.15,1.32,2.35,1.39,3.56Z"/><path class="h" d="M85.46,162.78c.1,1.96-1.12,4.22-2.31,4.25-1.29,.03-2.84-2.56-2.62-4.8,.11-1.09,.55-1.2,1.23-3.15,.87-2.51,.76-4.11,1.08-4.11,.32,0,.29,1.69,1.23,4.25,.79,2.15,1.32,2.35,1.39,3.56Z"/><path class="h" d="M438.61,168.84c.1,1.96-1.12,4.22-2.31,4.25-1.29,.03-2.84-2.56-2.62-4.8,.11-1.09,.55-1.2,1.23-3.15,.87-2.51,.76-4.11,1.08-4.11,.32,0,.29,1.69,1.23,4.25,.79,2.15,1.32,2.35,1.39,3.56Z"/><path class="h" d="M514.56,205.31c.1,1.96-1.12,4.22-2.31,4.25-1.29,.03-2.84-2.56-2.62-4.8,.11-1.09,.55-1.2,1.23-3.15,.87-2.51,.76-4.11,1.08-4.11,.32,0,.29,1.69,1.23,4.25,.79,2.15,1.32,2.35,1.39,3.56Z"/><path class="h" d="M29.22,97.95c.04,1.96-.41,4.22-.84,4.25-.47,.03-1.04-2.56-.95-4.8,.04-1.09,.2-1.2,.45-3.15,.32-2.51,.28-4.11,.39-4.11,.12,0,.11,1.69,.45,4.25,.29,2.15,.48,2.35,.51,3.56Z"/><path class="h" d="M383.7,205.01c.1,1.96-1.12,4.22-2.31,4.25-1.29,.03-2.84-2.56-2.62-4.8,.11-1.09,.55-1.2,1.23-3.15,.87-2.51,.76-4.11,1.08-4.11,.32,0,.29,1.69,1.23,4.25,.79,2.15,1.32,2.35,1.39,3.56Z"/><path class="h" d="M839.66,122.48c.1,1.96-1.12,4.22-2.31,4.25-1.29,.03-2.84-2.56-2.62-4.8,.11-1.09,.55-1.2,1.23-3.15,.87-2.51,.76-4.11,1.08-4.11,.32,0,.29,1.69,1.23,4.25,.79,2.15,1.32,2.35,1.39,3.56Z"/><path class="h" d="M578.01,105.52c.1,1.96-1.12,4.22-2.31,4.25-1.29,.03-2.84-2.56-2.62-4.8,.11-1.09,.55-1.2,1.23-3.15,.87-2.51,.76-4.11,1.08-4.11,.32,0,.29,1.69,1.23,4.25,.79,2.15,1.32,2.35,1.39,3.56Z"/><path class="h" d="M671.12,175.33c.1,1.96-1.12,4.22-2.31,4.25-1.29,.03-2.84-2.56-2.62-4.8,.11-1.09,.55-1.2,1.23-3.15,.87-2.51,.76-4.11,1.08-4.11,.32,0,.29,1.69,1.23,4.25,.79,2.15,1.32,2.35,1.39,3.56Z"/><path class="h" d="M986.82,105.8c.1,1.96-1.12,4.22-2.31,4.25-1.29,.03-2.84-2.56-2.62-4.8,.11-1.09,.55-1.2,1.23-3.15,.87-2.51,.76-4.11,1.08-4.11,.32,0,.29,1.69,1.23,4.25,.79,2.15,1.32,2.35,1.39,3.56Z"/><path class="h" d="M132.98,238.44c.1,1.96-1.12,4.22-2.31,4.25-1.29,.03-2.84-2.56-2.62-4.8,.11-1.09,.55-1.2,1.23-3.15,.87-2.51,.76-4.11,1.08-4.11,.32,0,.29,1.69,1.23,4.25,.79,2.15,1.32,2.35,1.39,3.56Z"/><path class="h" d="M282.12,251.5c.1,1.96-1.12,4.22-2.31,4.25-1.29,.03-2.84-2.56-2.62-4.8,.11-1.09,.55-1.2,1.23-3.15,.87-2.51,.76-4.11,1.08-4.11,.32,0,.29,1.69,1.23,4.25,.79,2.15,1.32,2.35,1.39,3.56Z"/><path class="h" d="M32.08,269.97c.1,1.96-1.12,4.22-2.31,4.25-1.29,.03-2.84-2.56-2.62-4.8,.11-1.09,.55-1.2,1.23-3.15,.87-2.51,.76-4.11,1.08-4.11,.32,0,.29,1.69,1.23,4.25,.79,2.15,1.32,2.35,1.39,3.56Z"/><path class="h" d="M187.07,287.61c.1,1.96-1.12,4.22-2.31,4.25-1.29,.03-2.84-2.56-2.62-4.8,.11-1.09,.55-1.2,1.23-3.15,.87-2.51,.76-4.11,1.08-4.11,.32,0,.29,1.69,1.23,4.25,.79,2.15,1.32,2.35,1.39,3.56Z"/><path class="h" d="M43.22,198.67c.1,1.96-1.12,4.22-2.31,4.25-1.29,.03-2.84-2.56-2.62-4.8,.11-1.09,.55-1.2,1.23-3.15,.87-2.51,.76-4.11,1.08-4.11,.32,0,.29,1.69,1.23,4.25,.79,2.15,1.32,2.35,1.39,3.56Z"/><path class="h" d="M405.18,306.14c.1,1.96-1.12,4.22-2.31,4.25-1.29,.03-2.84-2.56-2.62-4.8,.11-1.09,.55-1.2,1.23-3.15,.87-2.51,.76-4.11,1.08-4.11,.32,0,.29,1.69,1.23,4.25,.79,2.15,1.32,2.35,1.39,3.56Z"/><path class="h" d="M92.53,321.18c.1,1.96-1.12,4.22-2.31,4.25-1.29,.03-2.84-2.56-2.62-4.8,.11-1.09,.55-1.2,1.23-3.15,.87-2.51,.76-4.11,1.08-4.11,.32,0,.29,1.69,1.23,4.25,.79,2.15,1.32,2.35,1.39,3.56Z"/><path class="h" d="M292.64,305.99c.1,1.96-1.12,4.22-2.31,4.25-1.29,.03-2.84-2.56-2.62-4.8,.11-1.09,.55-1.2,1.23-3.15,.87-2.51,.76-4.11,1.08-4.11,.32,0,.29,1.69,1.23,4.25,.79,2.15,1.32,2.35,1.39,3.56Z"/><path class="h" d="M177.34,156.46c.1,1.96-1.12,4.22-2.31,4.25-1.29,.03-2.84-2.56-2.62-4.8,.11-1.09,.55-1.2,1.23-3.15,.87-2.51,.76-4.11,1.08-4.11,.32,0,.29,1.69,1.23,4.25,.79,2.15,1.32,2.35,1.39,3.56Z"/></g></svg>